# xmcd
#
# Track frame offsets:
#	150
#	5145
#	25685
#	31922
#	53559
#	59742
#	77277
#	83545
#	103251
#	109583
#	127864
#	133043
#	156308
#
# Disc length: 2144 seconds
#
# Revision: 1
# Processed by: cddbd v1.5.1PL2 Copyright (c) Steve Scherf et al.
# Submitted via: audiograbber 1.83.01
#
DISCID=99085e0d
DTITLE=Leselöwen - Schulfreundegeschichten
DYEAR=2005
DGENRE=Hörspiel
TTITLE0=Leselöwenlied
TTITLE1=E-Mail für Andi
TTITLE2=Spielplatzüberraschung
TTITLE3=Der Dieb
TTITLE4=Langfinger-Bluse
TTITLE5=Der Zeugnisstag
TTITLE6=Flauer Magen
TTITLE7=Papas Schulfreunde
TTITLE8=Frechdachs
TTITLE9=Die Turnstunde
TTITLE10=Hulla-Hoop
TTITLE11=Der Spickzettel
TTITLE12=Leselöwenlied
EXTD=
EXTT0=
EXTT1=
EXTT2=
EXTT3=
EXTT4=
EXTT5=
EXTT6=
EXTT7=
EXTT8=
EXTT9=
EXTT10=
EXTT11=
EXTT12=
PLAYORDER=
